<?xml version="1.0" encoding="utf-8"?>
<!-- Generator: Adobe Illustrator 27.0.0, SVG Export Plug-In . SVG Version: 6.00 Build 0)  -->
<svg version="1.1" id="Шар_1" xmlns="http://www.w3.org/2000/svg" xmlns:xlink="http://www.w3.org/1999/xlink" x="0px" y="0px"
	 viewBox="0 0 27 20" style="enable-background:new 0 0 27 20;" xml:space="preserve">
<style type="text/css">
	.st0{fill:#0B9750;}
</style>
<path class="st0" d="M23.1,0.1H3.9C1.8,0.1,0,1.8,0,4v12c0,2.2,1.8,3.9,3.9,3.9h19.2c2.1,0,3.9-1.7,3.9-3.9V4
	C27,1.8,25.2,0.1,23.1,0.1z M26.5,15.5c0,1.8-1.4,3.2-3.1,3.3c-0.1,0-0.1,0-0.2,0H3.8c-0.1,0-0.2,0-0.2,0c-1.7-0.1-3-1.5-3-3.3V4
	c0-1.8,1.5-3.3,3.3-3.3h19.4c1.8,0,3.3,1.5,3.3,3.3V15.5z"/>
<path class="st0" d="M23.2,0.8H3.8C2,0.8,0.5,2.2,0.5,4v11.5c0,1.7,1.3,3.1,3,3.3c0.1,0,0.2,0,0.2,0h19.4c0.1,0,0.1,0,0.2,0
	c1.7-0.1,3.1-1.5,3.1-3.3V4C26.5,2.2,25,0.8,23.2,0.8z M17.5,11.1L16.6,12c-0.8,0.8-1.8,1.1-2.8,1.1s-2-0.4-2.8-1.1l-1.3-1.3
	l-6.6,6.4c-0.1,0.1-0.2,0.2-0.4,0.2s-0.3-0.1-0.4-0.2c-0.2-0.2-0.2-0.6,0-0.8L9,10L2.8,3.8C2.6,3.6,2.6,3.2,2.8,3s0.5-0.2,0.8,0
	l8.3,8.3c1.1,1.1,2.9,1.1,3.9,0l7.5-7.5c0.2-0.2,0.6-0.2,0.8,0c0.2,0.2,0.2,0.6,0,0.8l-5.8,5.8l6.2,6c0.2,0.2,0.2,0.6,0,0.8
	c-0.1,0.1-0.2,0.2-0.4,0.2c-0.1,0-0.3-0.1-0.4-0.2L17.5,11.1z"/>
</svg>
