<?xml version="1.0" encoding="utf-8"?>
<!-- Generator: Adobe Illustrator 27.0.0, SVG Export Plug-In . SVG Version: 6.00 Build 0)  -->
<svg version="1.1" id="Шар_1" xmlns="http://www.w3.org/2000/svg" xmlns:xlink="http://www.w3.org/1999/xlink" x="0px" y="0px"
	 viewBox="0 0 30 25" style="enable-background:new 0 0 30 25;" xml:space="preserve">
<style type="text/css">
	.st0{fill:#0B9750;}
</style>
<path class="st0" d="M0,11.4c0.3-0.6,0.9-0.9,1.5-1.1c6.8-2.6,13.5-5.2,20.3-7.8c2-0.8,4-1.5,6-2.3C28,0.1,28.1,0.1,28.3,0
	c0.8-0.2,1.6,0.2,1.7,1.1c0,0.4,0,0.8-0.1,1.2c-1.5,7.1-3,14.1-4.5,21.2c-0.3,1.6-1.4,2-2.7,1c-2.2-1.6-4.4-3.2-6.6-4.9
	c-0.1,0.1-0.2,0.2-0.3,0.3c-1.1,1-2.1,2.1-3.2,3.1c-0.3,0.3-0.7,0.5-1.2,0.5c0-0.7,0.1-1.3,0.1-2c0.1-1.5,0.2-3,0.3-4.5
	c0-0.4,0.1-0.6,0.4-0.9c4.1-3.6,8.1-7.3,12.2-10.9c0,0,0.1-0.1,0.1-0.1c0.1-0.2,0.2-0.3,0.3-0.5c-0.2,0-0.4-0.1-0.6-0.1
	c-0.2,0-0.4,0.2-0.6,0.3C18.4,8,13.3,11.2,8.3,14.4c-0.3,0.2-0.5,0.2-0.8,0.1c-2.1-0.7-4.3-1.4-6.4-2c-0.4-0.1-0.8-0.3-1.1-0.7
	C0,11.7,0,11.5,0,11.4z"/>
</svg>
