<?xml version="1.0" encoding="utf-8"?>
<!-- Generator: Adobe Illustrator 27.0.0, SVG Export Plug-In . SVG Version: 6.00 Build 0)  -->
<svg version="1.1" id="Шар_1" xmlns="http://www.w3.org/2000/svg" xmlns:xlink="http://www.w3.org/1999/xlink" x="0px" y="0px"
	 viewBox="0 0 27 29" style="enable-background:new 0 0 27 29;" xml:space="preserve">
<style type="text/css">
	.st0{fill:#0B9750;}
</style>
<path class="st0" d="M26.6,7.8c-0.7-3.8-3-6-6.6-6.9c-1.3-0.3-2.7-0.6-4.1-0.7C12.7-0.2,9.5-0.1,6.5,1C3.8,2,1.7,3.7,0.9,6.5
	c-0.9,3.4-1.2,6.8-0.6,10.3c0.6,3.2,2,5.7,5.4,6.7c0.4,0.1,0.5,0.4,0.5,0.8c0,1.5-0.1,3.1-0.1,4.6c0.8,0.2,1.3,0,1.9-0.5
	c1.1-1.2,2.3-2.2,3.5-3.3c0.2-0.2,0.6-0.4,0.9-0.4c2.1-0.1,4.3-0.1,6.4-0.3c3.8-0.4,6.4-2.2,7.4-6C27.2,14.9,27.2,11.4,26.6,7.8z
	 M20.3,19.1c-0.8,1.6-2.5,2.3-4.1,1.5C11,18.2,7.4,14.4,5.5,9.1C4.9,7.6,5.9,5.8,8.1,5.6C8.2,5.7,8.6,5.8,8.8,6c0.8,1,1.5,2,2.2,3
	c0.3,0.5,0.1,1-0.4,1.4c-1.3,1-1.3,1.4-0.5,2.8c0.8,1.5,2.1,2.5,3.6,3.3c0.7,0.3,1.2,0.1,1.6-0.4c0.8-1,1.6-1.1,2.6-0.4
	c0.7,0.5,1.4,1,2.1,1.6C20.6,17.9,20.6,18.4,20.3,19.1z M14,7.6c-0.5,0.1-0.9,0-1-0.5c-0.1-0.6,0.4-0.7,0.9-0.7c0.2,0,0.4,0,0.6,0
	c2.8,0.1,5,2.4,4.9,5.1c0,0.3,0,0.6-0.2,0.8c-0.1,0.2-0.5,0.5-0.6,0.4c-0.2-0.1-0.5-0.4-0.5-0.6c-0.1-0.6,0-1.2-0.1-1.8
	C17.5,8.6,15.8,7.5,14,7.6z M17.4,11.6c-0.1,0.1-0.3,0.5-0.5,0.5c-0.2,0-0.6-0.3-0.6-0.6c-0.2-1.1-0.7-1.8-2-2
	c-0.4,0-0.7-0.3-0.5-0.7c0.1-0.2,0.5-0.5,0.8-0.5C16,8.3,17.4,9.8,17.4,11.6z M21,12.8c-0.1,0.2-0.5,0.4-0.7,0.6
	c-0.2-0.3-0.4-0.5-0.5-0.8c-0.1-0.9,0.1-1.8-0.1-2.6c-0.7-2.9-3.4-4.7-6.4-4.3c-0.5,0.1-0.9,0.1-1-0.5c-0.1-0.5,0.3-0.7,0.8-0.8
	c4.3-0.7,8.1,2.6,8.1,6.9C21.2,11.9,21.2,12.4,21,12.8z"/>
</svg>
