<?xml version="1.0" encoding="utf-8"?>
<!-- Generator: Adobe Illustrator 27.0.0, SVG Export Plug-In . SVG Version: 6.00 Build 0)  -->
<svg version="1.1" id="Шар_1" xmlns="http://www.w3.org/2000/svg" xmlns:xlink="http://www.w3.org/1999/xlink" x="0px" y="0px"
	 viewBox="0 0 29 29" style="enable-background:new 0 0 29 29;" xml:space="preserve">
<style type="text/css">
	.st0{fill:#009146;}
</style>
<path class="st0" d="M0,29c0.8-2.4,1.6-4.7,2.4-7c0.1-0.4,0.1-0.7-0.1-1.1C-2.4,12.3,2.8,1.8,12.5,0.2c7.9-1.3,15.4,4.2,16.4,12.1
	c1.1,8-4.8,15.2-12.8,15.9c-2.7,0.2-5.3-0.3-7.7-1.4c-0.3-0.1-0.7-0.2-1-0.1C4.9,27.4,2.5,28.2,0,29z M10.4,7.2
	C9.7,7.1,9.2,7.4,8.8,7.9C7.5,9.4,7.3,11,8.1,12.7c1.9,4.1,4.9,7.1,9.3,8.3c0.6,0.2,1.4,0.2,2.1,0.1c1.6-0.2,2.6-1.4,2.7-2.8
	c0-0.2-0.2-0.6-0.4-0.7c-0.9-0.5-1.8-1-2.7-1.4c-0.4-0.2-0.7-0.2-1,0.2c-0.3,0.4-0.6,0.7-0.9,1.1c-0.3,0.4-0.7,0.5-1.1,0.2
	c-1.7-0.8-3.1-2-4.1-3.6c-0.7-1.1-0.7-1.1,0.1-2.1c0.3-0.4,0.7-0.8,0.5-1.4c-0.3-0.9-0.7-1.8-1-2.7C11.3,7.4,11,7.1,10.4,7.2z"/>
</svg>
