<?xml version="1.0" encoding="utf-8"?>
<!-- Generator: Adobe Illustrator 27.0.0, SVG Export Plug-In . SVG Version: 6.00 Build 0)  -->
<svg version="1.1" id="Шар_1" xmlns="http://www.w3.org/2000/svg" xmlns:xlink="http://www.w3.org/1999/xlink" x="0px" y="0px"
	 viewBox="0 0 15 14" style="enable-background:new 0 0 15 14;" xml:space="preserve">
<style type="text/css">
	.st0{fill:#FFFFFF;}
</style>
<path class="st0" d="M15,7L15,7C15,7.1,15,7.1,15,7c0,0.1,0,0.1,0,0.1c0,0,0,0.1,0,0.1c0,0,0,0,0,0.1c0,0,0,0,0,0.1c0,0,0,0,0,0.1
	c0,0-0.1,0.1-0.1,0.1l-6,6.2C8.6,13.9,8.4,14,8.2,14c-0.2,0-0.4-0.1-0.5-0.2c-0.3-0.3-0.3-0.8,0-1.1l4.8-5l-11.7,0
	C0.3,7.7,0,7.4,0,7c0-0.4,0.4-0.7,0.8-0.7c0,0,0,0,0,0l11.7,0l-4.8-5C7.3,1,7.3,0.5,7.6,0.2c0.3-0.3,0.8-0.3,1.1,0l6,6.3
	c0.1,0.1,0.1,0.1,0.1,0.2c0,0,0,0,0,0.1c0,0,0,0,0,0.1c0,0,0,0,0,0.1C15,6.9,15,7,15,7z"/>
</svg>
